<svg width="25" height="24" viewBox="0 0 25 24" fill="none" xmlns="http://www.w3.org/2000/svg">
<g id="Interface, Essential/dots-menu">
<g id="Group">
<path id="Path" d="M19.0029 12.0002C19.0029 12.2765 18.7789 12.5004 18.5026 12.5004C18.2264 12.5004 18.0024 12.2765 18.0024 12.0002C18.0024 11.724 18.2264 11.5 18.5026 11.5C18.7789 11.5 19.0029 11.724 19.0029 12.0002" stroke="#70707B" stroke-width="1.5" stroke-linecap="round" stroke-linejoin="round"/>
<path id="Path_2" d="M13.0004 12.0002C13.0004 12.2765 12.7765 12.5004 12.5002 12.5004C12.224 12.5004 12 12.2765 12 12.0002C12 11.724 12.224 11.5 12.5002 11.5C12.7765 11.5 13.0004 11.724 13.0004 12.0002" stroke="#70707B" stroke-width="1.5" stroke-linecap="round" stroke-linejoin="round"/>
<path id="Path_3" d="M6.99773 12.0002C6.99773 12.2765 6.77378 12.5004 6.49752 12.5004C6.22127 12.5004 5.99731 12.2765 5.99731 12.0002C5.99731 11.724 6.22127 11.5 6.49752 11.5C6.77378 11.5 6.99773 11.724 6.99773 12.0002" stroke="#70707B" stroke-width="1.5" stroke-linecap="round" stroke-linejoin="round"/>
</g>
</g>
</svg>
