<svg width="25" height="24" viewBox="0 0 25 24" fill="none" xmlns="http://www.w3.org/2000/svg">
<path d="M12.5 20.0034C15.4314 20.0036 18.1284 18.4013 19.5299 15.8267" stroke="#007ED9" stroke-width="1.5" stroke-linecap="round" stroke-linejoin="round"/>
<path d="M20.5033 12.0002C20.5033 7.58004 16.9201 3.99683 12.5 3.99683" stroke="#007ED9" stroke-width="1.5" stroke-linecap="round" stroke-linejoin="round"/>
<path d="M12.5001 3.99683C9.56875 3.99658 6.87178 5.59895 5.47021 8.17357" stroke="#007ED9" stroke-width="1.5" stroke-linecap="round" stroke-linejoin="round"/>
<path d="M4.49683 12C4.49683 16.4201 8.08004 20.0033 12.5002 20.0033" stroke="#007ED9" stroke-width="1.5" stroke-linecap="round" stroke-linejoin="round"/>
<path d="M5.47021 8.17359C7.21968 4.95857 10.9273 3.34006 14.4744 4.24295C18.0215 5.14583 20.504 8.33999 20.5035 12.0002" stroke="#007ED9" stroke-width="1.5" stroke-linecap="round" stroke-linejoin="round"/>
<path d="M4.49683 12C4.49627 15.6602 6.97885 18.8544 10.5259 19.7572C14.073 20.6601 17.7806 19.0416 19.5301 15.8266" stroke="#007ED9" stroke-width="1.5" stroke-linecap="round" stroke-linejoin="round"/>
<path d="M8.54551 8.17346H5.00903V4.63599" stroke="#007ED9" stroke-width="1.5" stroke-linecap="round" stroke-linejoin="round"/>
<path d="M16.4548 15.8267H19.9913V19.3641" stroke="#007ED9" stroke-width="1.5" stroke-linecap="round" stroke-linejoin="round"/>
</svg>
