<svg width="32" height="32" viewBox="0 0 32 32" fill="none" xmlns="http://www.w3.org/2000/svg">
<path d="M18.6663 3.02539V8.53278C18.6663 9.27951 18.6663 9.65288 18.8117 9.9381C18.9395 10.189 19.1435 10.393 19.3944 10.5208C19.6796 10.6661 20.0529 10.6661 20.7997 10.6661H26.3071M11.9997 19.9993L15.9997 23.9993M15.9997 23.9993L19.9997 19.9993M15.9997 23.9993L15.9997 15.9993M18.6663 2.66602H11.733C9.4928 2.66602 8.37269 2.66602 7.51705 3.10199C6.7644 3.48548 6.15248 4.09741 5.76898 4.85005C5.33301 5.7057 5.33301 6.82581 5.33301 9.06602V22.9327C5.33301 25.1729 5.33301 26.293 5.76898 27.1486C6.15248 27.9013 6.7644 28.5132 7.51705 28.8967C8.37269 29.3327 9.4928 29.3327 11.733 29.3327H20.2663C22.5066 29.3327 23.6267 29.3327 24.4823 28.8967C25.235 28.5132 25.8469 27.9013 26.2304 27.1486C26.6663 26.293 26.6663 25.1729 26.6663 22.9327V10.666L18.6663 2.66602Z" stroke="#BFC1C7" stroke-width="1.5" stroke-linecap="round" stroke-linejoin="round"/>
</svg>
