<svg width="24" height="24" viewBox="0 0 24 24" fill="none" xmlns="http://www.w3.org/2000/svg">
<g id="&#208;&#147;&#208;&#149;&#208;&#158;&#208;&#161;">
<g id="Group">
<g id="Group_2">
<path id="Path" d="M14.0009 16.0143V20.5032C14.0009 20.7793 14.2149 21.0034 14.4801 21.0034H19.5252C19.7893 21.0034 20.0034 20.7793 20.0034 20.5032V15.9873" stroke="white" stroke-linecap="round" stroke-linejoin="round"/>
<path id="Path_2" d="M13.0004 16.6691L17.0841 14.001L21.0037 16.6691" stroke="white" stroke-linecap="round" stroke-linejoin="round"/>
<path id="Oval" fill-rule="evenodd" clip-rule="evenodd" d="M10.4553 12.8675C11.8272 12.8675 12.9394 11.7553 12.9394 10.3834C12.9394 9.01155 11.8272 7.89941 10.4553 7.89941C9.08345 7.89941 7.97131 9.01155 7.97131 10.3834C7.97131 11.7553 9.08345 12.8675 10.4553 12.8675Z" stroke="white" stroke-linecap="round" stroke-linejoin="round"/>
<path id="Path_3" d="M17.8914 10.9234C18.0215 8.86154 17.3052 6.75666 15.7295 5.181C12.8163 2.26779 8.09434 2.26779 5.18113 5.181C2.26791 8.09422 2.26791 12.8162 5.18113 15.7294L10.4553 21.0036" stroke="white" stroke-linecap="round" stroke-linejoin="round"/>
</g>
</g>
</g>
</svg>
