<svg width="16" height="16" viewBox="0 0 16 16" fill="none" xmlns="http://www.w3.org/2000/svg">
<g id="log-out-03">
<path id="Icon" d="M10.6667 11.3332L14 7.99988M14 7.99988L10.6667 4.66655M14 7.99988H6M8 11.3332C8 11.5303 8 11.6288 7.99268 11.7141C7.91655 12.6012 7.26324 13.3311 6.39002 13.5047C6.30602 13.5214 6.20801 13.5323 6.01223 13.5541L5.3313 13.6297C4.30832 13.7434 3.7968 13.8002 3.39044 13.6702C2.84862 13.4968 2.40628 13.1009 2.17412 12.5815C2 12.192 2 11.6774 2 10.6481V5.35168C2 4.32239 2 3.80774 2.17412 3.41822C2.40628 2.89887 2.84862 2.50295 3.39044 2.32956C3.79681 2.19952 4.3083 2.25636 5.33129 2.37002L6.01223 2.44568C6.20808 2.46744 6.306 2.47832 6.39002 2.49503C7.26324 2.66865 7.91655 3.39857 7.99268 4.28562C8 4.37097 8 4.46949 8 4.66655" stroke="#344054" stroke-width="1.33" stroke-linecap="round" stroke-linejoin="round"/>
</g>
</svg>
