<svg width="48" height="60" viewBox="0 0 48 60" fill="none" xmlns="http://www.w3.org/2000/svg">
<g id="Logo">
<path id="Vector" d="M0 0C0 0 0 42.3881 0 46.2687C0 52.2761 4.29906 54.8507 10.2804 54.8507C21.4206 54.8507 24 60 24 60C24 60 26.5794 54.8507 37.7196 54.8507C43.7383 54.8507 48 52.2761 48 46.2687C48 42.3881 48 0 48 0H0ZM37.757 53.097C29.9813 53.097 25.9439 55.5224 24.0374 57.3134C22.0935 55.5224 18.0561 53.097 10.3178 53.097C6.05607 53.097 3.36449 51.791 2.28037 49.2537L2.8785 49.1791C13.7944 47.2761 24.5981 47.4254 24.5981 47.4254C24.7103 47.0149 24.7477 46.5299 24.9346 46.0448C25.2336 45.2612 26.243 44.2164 28 44.2164L29.6075 44.3284C29.6075 42.3881 30.5047 40.6716 31.8505 39.5522C31.9626 39.4403 32 39.403 32 39.403C31.1402 39.4403 30.5794 39.291 30.5794 39.291C28.7103 39.1045 28 37.2761 27.2149 34.9254C26.9533 34.1045 26.6916 33.2463 26.3551 32.3881C25.3084 28.9179 21.4206 28.5075 20.5981 29.1045C17.0467 26.6791 13.9439 29.1418 13.5327 30.0373C14.0187 30.0373 14.3925 30.4104 14.3925 30.8955C14.3925 31.2313 14.2056 31.4925 13.9439 31.6418L13.3458 32.0149C13.0467 32.2015 12.8224 32.5746 12.8224 32.9478L9.94392 35.2985C9.79439 35.4478 9.64486 35.7836 9.79439 36.0821L11.3271 37.5C11.4019 37.0149 11.3645 36.6045 12.1121 36.3433C13.4206 35.9328 13.7944 36.5299 13.9065 36.903C13.9813 37.2015 13.9813 37.4627 13.9065 37.7239H13.7944C13.3458 37.5 12.8224 37.3507 12.2617 37.5C11.7009 37.6493 11.2897 38.097 11.028 38.2463C10.729 38.3955 10.3925 38.4701 10.2056 38.3955C10.0935 38.3582 9.98131 38.2836 9.94392 38.097C9.86916 37.9104 9.86916 37.6866 9.90654 37.4254C9.68224 37.5746 9.49533 37.7985 9.45794 38.097C9.38317 38.3955 9.49533 38.7687 9.75701 39.0299C10.0187 39.291 10.3925 39.3657 10.729 39.3657C11.0654 39.3657 11.3645 39.2537 11.5888 39.0672C11.6262 39.0299 11.6635 39.0299 11.6635 38.9925C11.6262 39.1418 11.5888 39.291 11.5888 39.4776C11.5888 40.0746 11.8878 40.4851 12.2243 40.6343C12.3738 40.709 12.5981 40.597 12.5981 40.3731C12.5981 39.4403 13.0841 39.2537 13.9065 38.9925C14.5421 38.7687 15.5514 38.3955 16.1495 38.1716C16.2991 38.1343 16.5981 37.9851 16.5981 37.9851C17.1963 37.7239 17.7196 37.2761 18.0935 36.7164C18.6168 35.7463 18.6916 35.1866 18.6916 35.1866C18.729 34.8134 18.729 34.5896 18.729 34.5896C19.5888 34.5896 19.8505 35.2239 19.8131 35.7463C19.6262 37.1642 18.6916 38.0224 17.6075 39.1045C17.1589 39.5522 16.5981 40 16.2617 40.4478C15.2523 41.903 15.0654 43.5821 17.3832 44.9254C17.4953 44.9627 17.6822 45.1493 17.7944 45.2612C18.4299 46.0448 17.8318 46.6791 17.4579 46.6791C16.9346 45.8582 16.4486 45.7836 16.2243 45.6716C15.514 45.3731 14.5794 45.1493 14.0935 44.2537C13.1589 44.8134 12.4112 45.0746 10.8785 45.0746H7.21495C6.16822 45.0746 5.15888 45.8209 5.04673 46.8284C5.00934 47.0149 5.04673 47.6493 5.04673 47.6493C4.07477 47.7612 3.14019 47.8731 2.20561 48.0224L1.86916 47.9478C1.75701 47.4254 1.71963 46.8657 1.71963 46.2313V1.71642H46.3551V46.2687C46.3551 46.903 46.2804 47.4627 46.2056 47.9851L45.9065 47.9104C44.3738 47.6866 43.028 47.5 41.4579 47.3507C41.4579 47.3507 41.6822 46.8657 42.0187 45.9701C42.0187 45.9701 42.9906 45.6716 43.5888 45.0373C44.0374 44.5896 44.3738 44.0672 44.5981 43.5821C44.7477 43.2836 44.8598 42.9851 44.8972 42.6493C44.972 42.0896 44.8972 41.4552 44.6729 40.7463C44.0748 39.1791 42.9159 37.9851 41.2336 37.2015C39.8878 36.6045 36.7103 36.3433 36.2991 36.3433C32.3738 36.1567 31.4019 35.4851 31.4019 35.4851L31.2523 35.4478C30.7663 35.1119 30.4673 34.5522 30.4673 33.9552C30.4673 32.9478 31.2897 32.1269 32.3364 32.1269C32.3738 32.1269 33.0467 32.0896 33.8692 32.7985C33.9065 34.3657 35.1776 35.6343 36.7477 35.6343C38.3551 35.6343 39.6262 34.3284 39.6262 32.7612C39.6262 31.9776 39.3271 31.2687 38.8037 30.7463C38.8037 30.8582 38.8411 30.9328 38.8411 31.0448C38.8411 32.2015 37.9065 33.1716 36.7103 33.1716C36.1121 33.1716 35.5514 32.9104 35.1776 32.5C35.1776 32.5 35.1028 32.4254 34.9906 32.3134C33.7196 31.0075 32.486 30.9701 32.2617 30.9701C30.6168 30.9701 29.271 32.3134 29.271 33.9552C29.271 34.9254 29.7196 35.8209 30.5047 36.3806C30.7663 36.6045 31.9626 37.3507 36.1121 37.5373C36.7477 37.5746 39.5888 37.8358 40.6355 38.2836C42.0187 38.9179 42.9906 39.9254 43.4766 41.1567C43.7383 41.9403 43.7009 42.6119 43.4392 43.1343C43.3645 43.2463 43.2897 43.3582 43.1776 43.4701C43.028 43.5821 42.8785 43.6567 42.6916 43.6567C42.4299 43.6567 42.2056 43.5448 42.0934 43.3209C42.0561 43.2463 41.9813 43.1343 41.9813 43.1343C41.7196 42.5746 41.3832 41.9403 40.972 41.3433C40.3738 40.4478 39.5514 39.7015 38.542 39.2537C38.5047 39.2164 38.4299 39.2164 38.3925 39.1791C37.8691 38.9552 37.3458 38.806 36.7477 38.7313H36.7103C36.486 38.694 36.2243 38.694 36 38.694H35.7757C33.3458 38.694 31.4019 40.6343 31.3645 43.0224C31.3645 43.0224 31.3645 43.0224 31.3645 43.0597C31.3645 43.1343 31.3645 43.1716 31.4019 43.209C31.514 44.291 32.4112 45.1493 33.4953 45.1493C33.4953 45.1493 33.9065 45.1493 36.1121 45.1493C37.0467 45.1493 37.1589 46.0075 37.1589 46.0075C32.2991 46.6045 30.243 45.597 28.1495 45.597C27.4392 45.597 26.8411 45.9701 26.542 46.5298C26.542 46.5298 26.3551 46.903 26.3178 47.2761C26.3178 47.3507 26.2804 47.4627 26.2804 47.4627C26.2804 47.4627 35.4766 47.6866 45.1963 49.1791L45.8318 49.2537C44.7103 51.8284 42.0187 53.097 37.757 53.097ZM12.1495 38.5075C12.1495 38.4701 12.1495 38.5075 12.1495 38.5075L12.1869 38.5821C12.1495 38.5821 12.1121 38.5821 12.0748 38.5821C12.1121 38.5448 12.1121 38.5075 12.1495 38.5075Z" fill="#2970FF"/>
<path id="Vector_2" d="M30.9915 21.0072C31.1784 20.5594 31.1784 20.2982 30.6924 19.7759C31.2531 19.5893 31.4774 20.2982 31.4774 20.2982C31.5896 19.9251 31.5522 19.552 31.5148 19.3281C31.3653 18.8057 30.655 18.6191 30.0195 19.1042C29.6457 19.3654 29.4214 19.9251 29.0102 20.037C28.8232 20.0744 27.4027 19.6639 27.4027 19.6639C27.6644 19.2908 28.0382 18.8803 28.0756 18.3206C28.113 17.7609 27.5522 16.8654 26.7298 16.8281C26.5055 16.8281 26.3186 16.8654 26.169 16.94C26.169 16.9027 26.2064 16.8654 26.2064 16.8281C26.3186 16.5669 26.4681 16.1564 26.655 15.7833C28.412 16.6415 30.8045 16.9027 32.9354 16.0818L32.6737 15.2609C34.3186 15.746 35.1036 15.6341 35.9634 15.5594L34.6924 14.3654C37.9447 14.7759 38.9167 14.4027 39.926 13.5818L36.2625 12.2759C39.7017 12.2759 41.5709 11.1191 43.1036 9.29078L37.7204 9.92511C42.0943 8.88033 44.0382 6.67884 44.2625 4.06689C39.2905 8.32063 31.4401 8.05943 29.5335 8.05943C28.9728 8.05943 28.3373 8.58182 28.3373 9.14152C28.3373 10.037 29.1597 10.2982 29.1597 11.4923C29.1597 12.0893 28.5989 12.649 27.9634 12.8356L27.1036 12.3132C27.2531 9.99973 27.0288 8.46988 26.0569 8.246C26.0569 8.246 27.2531 7.79824 27.1036 6.67884C25.9447 7.1266 25.3466 7.05197 24.0756 7.05197C21.384 7.05197 21.384 8.69376 21.4588 9.0669C21.7578 8.84301 22.1317 8.73107 22.6176 8.73107C23.0662 8.73107 23.2905 9.25346 23.2905 9.70122C23.2905 11.0818 22.1317 11.6042 21.1971 12.4997L20.8606 12.7609C20.1503 12.7236 19.4027 12.052 19.4027 11.4176C19.4027 10.2236 20.1877 9.99973 20.1877 9.14152C20.1877 8.58182 19.5522 7.98481 19.0288 8.09675C16.412 8.61913 8.26249 7.38779 4.82324 4.25346C5.04754 6.75346 7.21577 8.84301 11.4027 9.85048L5.94474 9.25346C7.40268 11.0445 9.19707 12.1266 12.5616 12.1266L9.08492 13.3206C10.0943 14.1042 10.9915 14.44 14.1317 14.0669L12.898 15.2236C13.7204 15.3356 14.5055 15.4102 16.0756 14.9624L15.8513 15.746C17.7952 16.5296 19.7391 16.4923 21.6831 15.5967C21.8326 15.9699 22.0195 16.3803 22.1317 16.7162C22.169 16.7535 22.169 16.7908 22.2064 16.8281C22.0569 16.7908 21.9074 16.7535 21.6831 16.7535C20.8606 16.7908 20.2999 17.649 20.3373 18.246C20.3746 18.8057 20.7485 19.2162 21.0102 19.5893C21.0102 19.5893 19.5896 19.9997 19.4027 19.9624C18.9915 19.8505 18.7672 19.2908 18.3933 19.0296C17.7578 18.5445 17.0475 18.7311 16.898 19.2535C16.8232 19.4773 16.7859 19.8132 16.9354 20.2236C16.9354 20.2236 17.1971 19.5147 17.7204 19.7012C17.2345 20.2236 17.2345 20.4848 17.4214 20.9326C17.7952 20.2609 18.7298 20.2236 19.3653 20.6341C20.3746 21.2684 20.1877 21.7162 19.8513 22.3505C20.898 21.9773 21.0102 21.6788 20.412 20.4848L21.87 19.9251C21.9821 19.8878 22.0195 19.7759 21.9821 19.6639C21.9074 19.3281 21.7952 18.6564 22.5055 18.6191C22.8793 18.6191 23.0288 18.8803 23.1036 19.1788C23.141 19.44 23.1784 19.7012 23.1784 19.9997C23.1784 21.6415 21.7204 23.0221 21.1971 23.3206C21.9447 23.7311 22.655 23.6938 23.4027 23.1714C23.5522 23.7684 23.7391 24.1042 24.2251 24.4773C24.7111 24.1042 24.898 23.7684 25.0475 23.1714C25.7952 23.6938 26.4681 23.7311 27.2158 23.3206C26.6924 23.0221 25.2345 21.6415 25.2345 19.9997C25.2345 19.8132 25.2345 19.6639 25.2718 19.5147C25.384 19.1042 25.4588 18.5818 25.9447 18.6191C26.655 18.6564 26.5429 19.3281 26.4681 19.6639C26.4307 19.7759 26.5055 19.8878 26.5802 19.9251L28.0382 20.4848C27.4401 21.6788 27.5896 21.9773 28.5989 22.3505C28.2625 21.7162 28.0382 21.3057 29.0849 20.6341C29.6831 20.2609 30.6176 20.3356 30.9915 21.0072Z" fill="#2970FF"/>
</g>
</svg>
